<svg id="Layer_1" data-name="Layer 1" xmlns="http://www.w3.org/2000/svg" viewBox="0 0 82.34 64.4"><defs><style>.cls-1{fill:#164276;}.cls-2{fill:#174e83;}.cls-3{fill:#e9ad2c;}.cls-4{fill:#e5ab2d;}</style></defs><path class="cls-1" d="M965.25,555.37c-4,4-7.44,4.26-11.33-.45,0,4.17,0,6.87,0,9.56a9.4,9.4,0,0,1-.14,2.61c-.59,1.89-11.41,5.78-13.24,4.84a6,6,0,0,1-.64-.38c-4-2.66-9.49-4.49-11.71-8.24-2-3.44-.6-9-.68-13.56a15.27,15.27,0,0,1,0-2.62c1-5.93-.62-10.45-6.68-12.65-1.75-.63-2.23-2-2.18-3.84.12-5,.15-10,0-15-.07-2.12.9-2.83,2.56-3.86,7.34-4.58,13.84-4.52,20.71,1.4,4.67,4,10.44,6.73,15.62,10.18a3.29,3.29,0,0,0,4.28,0c7.6-5,15.34-9.73,22.94-14.71a4.32,4.32,0,0,1,4.78-.41c3.57,1.72,8.5,2.38,10.45,5.18,1.83,2.63.55,7.45.64,11.31a6.26,6.26,0,0,0,0,.75c1,5.58-.78,9.64-6.3,11.71-2.21.83-2.61,2.54-2.56,4.78.14,6.36,0,12.73.1,19.1,0,1.84-.45,3.08-2.1,4-1.43.75-2.75,1.7-4.12,2.57-8.88,5.66-8.86,5.62-18.31,1.12a3.19,3.19,0,0,1-2.13-3.43C965.32,562.31,965.25,559.37,965.25,555.37ZM979.11,567c2.38-.66,3.71-2.37,5.47-3,3.23-1.22,3.64-3.47,3.54-6.49-.19-6,0-12-.08-18,0-1.74.19-3.22,2.07-3.93,5.82-2.2,8.1-6.37,6.93-12.5a16.59,16.59,0,0,1,0-1.87c-.08-1,.46-2.23-.47-2.8-1.12-.68-2,.44-2.94,1l-24.17,15.36c-8.56,5.45-8.55,5.45-8.24,15.32,0,.12,0,.25,0,.37-.07,2.67.8,3.1,3,1.57,3.79-2.58,7.73-4.94,11.59-7.42,2.46-1.59,3.39-1.09,3.32,2C979,553.27,979.11,560,979.11,567Zm-38.82,0c0-6.92,0-13.51,0-20.11,0-1-.61-2.49.64-3,1.1-.48,2,.64,2.93,1.22,3.78,2.37,7.64,4.63,11.36,7.08,2,1.28,2.79,1.24,3-1.36.78-10.16.67-10.43-8.16-15.62-1.17-.69-2.27-1.52-3.42-2.25l-22-13.93c-1-.61-1.83-1.6-2.29.52-1.66,7.68.08,12.13,6.72,15.95a4.09,4.09,0,0,1,2.26,4.22c-.08,4.61.5,9.31-.15,13.83-.94,6.58,1.51,10.65,7.42,13C939,566.6,939.32,566.67,940.29,567Zm-15.17-52.07L956,534.56c.77.49,1.47,1,1.91-.47a7.26,7.26,0,0,0-3.13-8.22c-5.76-3.68-11.75-7.06-17.23-11.13C933.36,511.62,929.64,511.15,925.12,514.88Zm69.07-.06c-4.25-3.33-7.88-3.49-12.16-.27a166.64,166.64,0,0,1-16.91,10.82c-3,1.71-4.1,3.73-3.87,7.12.18,2.56.56,3.11,2.86,1.61,7.06-4.61,14.2-9.1,21.31-13.64Zm-50.1,53.25c2.6-1.74,6.48-.86,6.47-5.6,0-9.73-.24-10.47-6.47-12.53Zm31.14-18.31c-6.81,3-7.37,4.18-6.41,13.69.4,3.94,4.15,2.95,6.41,4.5Z" transform="translate(-918.64 -507.67)"/><path class="cls-2" d="M979.11,567c0-7-.11-13.72,0-20.4.07-3.06-.86-3.56-3.32-2-3.86,2.48-7.8,4.84-11.59,7.42-2.25,1.53-3.12,1.1-3-1.57,0-.12,0-.25,0-.37-.31-9.87-.32-9.87,8.24-15.32l24.17-15.36c.91-.58,1.82-1.7,2.94-1,.93.57.39,1.84.47,2.8a16.59,16.59,0,0,0,0,1.87c1.17,6.13-1.11,10.3-6.93,12.5-1.88.71-2.08,2.19-2.07,3.93.06,6-.11,12,.08,18,.1,3-.31,5.27-3.54,6.49C982.82,564.62,981.49,566.33,979.11,567Z" transform="translate(-918.64 -507.67)"/><path class="cls-2" d="M940.29,567c-1-.28-1.33-.35-1.67-.48-5.91-2.36-8.36-6.43-7.42-13,.65-4.52.07-9.22.15-13.83a4.09,4.09,0,0,0-2.26-4.22c-6.64-3.82-8.38-8.27-6.72-15.95.46-2.12,1.33-1.13,2.29-.52l22,13.93c1.15.73,2.25,1.56,3.42,2.25,8.83,5.19,8.94,5.46,8.16,15.62-.2,2.6-1,2.64-3,1.36-3.72-2.45-7.58-4.71-11.36-7.08-.93-.58-1.83-1.7-2.93-1.22-1.25.55-.63,2-.64,3C940.26,553.44,940.29,560,940.29,567Z" transform="translate(-918.64 -507.67)"/><path class="cls-3" d="M925.12,514.88c4.52-3.73,8.24-3.26,12.45-.14,5.48,4.07,11.47,7.45,17.23,11.13a7.26,7.26,0,0,1,3.13,8.22c-.44,1.44-1.14,1-1.91.47Z" transform="translate(-918.64 -507.67)"/><path class="cls-3" d="M994.19,514.82l-8.77,5.64c-7.11,4.54-14.25,9-21.31,13.64-2.3,1.5-2.68.95-2.86-1.61-.23-3.39.9-5.41,3.87-7.12A166.64,166.64,0,0,0,982,514.55C986.31,511.33,989.94,511.49,994.19,514.82Z" transform="translate(-918.64 -507.67)"/><path class="cls-4" d="M944.09,568.07V549.94c6.23,2.06,6.45,2.8,6.47,12.53C950.57,567.21,946.69,566.33,944.09,568.07Z" transform="translate(-918.64 -507.67)"/><path class="cls-3" d="M975.23,549.76V568c-2.26-1.55-6-.56-6.41-4.5C967.86,553.94,968.42,552.8,975.23,549.76Z" transform="translate(-918.64 -507.67)"/></svg>