<svg id="Layer_1" data-name="Layer 1" xmlns="http://www.w3.org/2000/svg" viewBox="0 0 187.51 188.02"><defs><style>.cls-1{fill:#ebb032;}.cls-2{fill:#154177;}.cls-3{fill:#e4aa2e;}.cls-4{fill:#e2a92e;}.cls-5{fill:#e5ab2d;}.cls-6{fill:#e5aa2e;}.cls-7{fill:#e0a82f;}.cls-8{fill:#e3aa2e;}.cls-9{fill:#e9ad2c;}.cls-10{fill:#1e4674;}.cls-11{fill:#164276;}.cls-12{fill:#1a4475;}.cls-13{fill:#294b70;}.cls-14{fill:#f0b02a;}.cls-15{fill:#174e83;}</style></defs><path class="cls-1" d="M1053.76,543.34c-1.58,4.34-1.25,9-2.07,13.45a94,94,0,0,1-79.36,76.33c-50.82,7.14-98.76-29.45-105.27-80.34-6.43-50.24,25.82-95.15,75.45-105.09s99.91,24.51,109,74.35c.93,5.09.7,10.33,2.24,15.31Zm-94-94.16c-49.65-.15-90.31,40.4-90.51,90.26-.2,50.4,40.08,91.31,90.05,91.46,49.71.16,90.52-40.36,90.73-90.07C1050.27,490.19,1010,449.33,959.79,449.18Z" transform="translate(-866.24 -445.99)"/><path class="cls-2" d="M959.79,449.18c50.24.15,90.48,41,90.27,91.65-.21,49.71-41,90.23-90.73,90.07-50-.15-90.25-41.06-90.05-91.46C869.48,489.58,910.14,449,959.79,449.18ZM1014.91,586c3.6,3.15,4.34,3.16,8.18.11.39-.3.76-.64,1.15-.94.7-.55,1.51-1.13,2.28-.3s.17,1.61-.29,2.36a8.33,8.33,0,0,1-3,2.75c-.84.5-.73,1.12-.27,1.86a1.16,1.16,0,0,0,1.83.46,10.51,10.51,0,0,0,4.09-4.22c1.15-2.11,1.56-4.28-.45-6.12-2.19-2-4-.68-5.94.7-1.19.88-2.47,3.17-3.89,1.74-1.63-1.65.66-2.92,1.73-4.14a1.66,1.66,0,0,1,.3-.22c.85-.53,1.24-1.08.54-2.1-.91-1.34-1.69-.53-2.43.06a9.25,9.25,0,0,0-3.79,8.06,2.2,2.2,0,0,0-3.11.6,56.69,56.69,0,0,1-5.42,5.43c-1.45,1.25-1.21,2.38-.39,3.72-4-.47-6.74,2-9.68,4a1.51,1.51,0,0,0-.39,2.49c2.1,2.94,4.16,5.92,6.2,8.9.61.9,1.23,1.07,2.13.37.73-.58,1.31-1,.73-2.13-.45-.84-1.91-1.58-.5-2.81a3,3,0,0,1,3.49-.21c1.9.87,3.47.9,4.46-1.18-1.11-1.35-4-.73-3.68-2.72.58-3.15-1.33-4.79-2.83-6.82,3.65-3.82,6.17-1.55,8.58,1.57.61.78,1.43,1.39,2.09,2.13a1.46,1.46,0,0,0,2.48.1c1-.93.87-1.59-.06-2.41-.74-.65-1.37-1.44-2.12-2.1-2.59-2.31-5.7-4.46-2-8.31C1015.07,586.65,1014.93,586.29,1014.91,586Zm13.56-59.93c-.12,1-.22,1.92.74,2.68,3.62,2.85,3.87,5,.89,8.32a2.16,2.16,0,0,0-.25,2.71c.69,1.3,1.51.11,2.12-.22,3.15-1.72,6.24-3.55,9.36-5.32,1-.57,1.75-1.14,1.54-2.59a2.5,2.5,0,0,0-2-2.26c-3.77-1.16-7.53-2.36-11.29-3.55,1.22-2.54,0-4.83-.79-7.13-.36-1.14,0-1.52,1-1.92s1.42-.07,2,.8c1,1.46-.07,5,2.65,4.27,2.18-.62,0-3.17-.13-4.86a1.62,1.62,0,0,1,1.21-2c1-.32,1.32.43,1.56,1.14.41,1.17.71,2.37,1.09,3.55.3.93.47,2.1,1.93,1.55s.85-1.47.62-2.46c-2-8.27-2-8.27-9.84-5.82-1.3.4-2.59.82-3.91,1.16-1.51.39-2,1.25-1.49,2.74C1026.46,520,1027.46,523.05,1028.47,526.11Zm-68.78,77.28a63.27,63.27,0,0,0,63.21-63.3c0-35-28.31-63.43-63.1-63.46a63.38,63.38,0,0,0-.11,126.76ZM885.4,550.15c-2.57,2.07-4.68,3.8-6.81,5.49a2.06,2.06,0,0,0-.65,2.66c.38.9,1.2.73,1.93.64,3.44-.46,6.88-1,10.33-1.41,1-.13,1.6-.53,1.5-1.67s-.75-1.47-1.77-1.39c-1.54.12-3.08.21-4.79.33.76-2.63,4.59-2.91,4-5.23-.56-2.13-3.77-1.94-5.55-3.23-.14-.11-.15-.39-.24-.62,1.61-.27,3.2-.55,4.8-.8,1-.14,2.08,0,1.92-1.59s-1.25-1.63-2.43-1.46c-3.08.44-6.15.86-9.22,1.36-.86.14-2.13-.31-2.3,1.23s.75,2,1.83,2.46Zm148.7,0c3.08-1.39,5.54-2.53,8-3.59a2,2,0,0,0,1.23-2.06,1.08,1.08,0,0,0-1.09-1.21q-5.52-.74-11-1.5c-1.12-.15-1.55.48-1.73,1.47-.21,1.22.52,1.46,1.49,1.59,1.71.23,3.42.52,5.57.85-.78.5-1.15.8-1.57,1-5.46,2.64-5.46,2.63-1.17,6.66.21.2.19.64.28,1-1.3.63-2.52.17-3.72.13s-2.34-.37-2.57,1.28,1.09,1.64,2.17,1.79l9.23,1.18c.94.12,2,.65,2.46-.78a2.24,2.24,0,0,0-1-2.58C1038.62,553.75,1036.59,552.11,1034.1,550.13ZM897.71,588.21l3-8.13a2.19,2.19,0,0,0-.67-2.68c-1-.82-1.61.11-2.24.58-2.68,2-5.3,4.12-8,6.15-.93.71-1.31,1.32-.46,2.44s1.6.69,2.44,0c1.28-1,2.59-2,3.89-2.91a8.13,8.13,0,0,1-.69,3.58c-1.42,3.86-1.17,4.19,2.77,3.63,1.23-.17,2.49-.22,4.67-.41-2.07,1.66-3.31,2.67-4.57,3.66-.8.63-1.63,1.18-.77,2.4,1,1.39,1.86.71,2.78,0,2.35-1.84,4.75-3.63,7-5.54.77-.63,2.32-.94,1.74-2.46s-1.72-1.48-3.11-1.25C903.17,587.7,900.71,587.88,897.71,588.21ZM914.83,478c-2.59.18-4.87-.85-7.24-1.28-1.36-.25-2.88-.6-3.71.85-.71,1.24.62,2,1.24,2.84,1.7,2.3,3.5,4.53,5.27,6.79.68.87,1.21,1.9,2.65.81s.71-1.76,0-2.75c-.88-1.29-2.36-2.23-2.64-4.16,2.59-.34,4.89.7,7.24,1.19,1.32.27,2.5.41,3.4-.71,1.07-1.34-.41-2-1-2.79-1.68-2.32-3.49-4.55-5.27-6.79-.75-.93-1.36-2.26-2.92-1s-.12,2.14.45,3.1C913.09,475.42,914.47,476.26,914.83,478ZM885.3,517.29c3.32-1.26,5.7-2.24,8.14-3.06,1.31-.45,2.31-1.12,2.29-2.54s-1.34-1.28-2.2-1.6c-2.79-1-5.62-1.95-8.41-3-1.08-.4-2-.92-2.67.68-.84,2,.72,2,1.75,2.45,1.59.65,3.24,1.19,5.37,2-3.23,1.22-6,2.3-8.7,3.29a2.4,2.4,0,0,0-1.75,2.17c-.12,1.21,1,1.31,1.72,1.58,3,1.08,6.07,2.11,9.12,3.15.95.32,1.92.72,2.44-.65s-.14-2-1.41-2.43C889.34,518.81,887.74,518.17,885.3,517.29Zm41.07,100c-.11-3.52-.11-3.52,2.91-5.87a4.82,4.82,0,0,0,.14-7.76c-1.6-1.32-3.62-2.14-5.4-3.27-1.37-.86-2.14-.55-2.85.91-1.46,3-3.1,6-4.64,9-.43.84-1.17,1.7.27,2.43,1,.51,1.8.73,2.49-.45.46-.79.69-2,2.12-1.51s1.77,1.58,1.77,2.92C923.18,615.79,924.05,617.15,926.37,617.3Zm-42.67-78a7.62,7.62,0,0,0,7.26-8,7.36,7.36,0,0,0-7.27-7.46c-4.06,0-7.31,3.56-7.27,7.94A7.36,7.36,0,0,0,883.7,539.32Zm121.4-54.27a7,7,0,0,0,6.91-7.24,8.15,8.15,0,0,0-8.11-7.63,7.21,7.21,0,0,0-6.92,7.34A7.93,7.93,0,0,0,1005.1,485.05Zm-26-21c-.06-4.11-3.47-7.13-8-7.07a7.06,7.06,0,0,0-7.32,7.29c.07,4,3.66,7.22,8,7.15A7.2,7.2,0,0,0,979.07,464Zm-17.61,5.64c.07-1.84-3.23-2.59-1.65-4.66,2-2.6,2.1-5-.12-7.31-1.29-1.35-8.73-1.83-10-.84a1.75,1.75,0,0,0-.56,1.67c.18,3.47.38,6.95.56,10.42.07,1.18.53,1.79,1.84,1.7,1.13-.07,1.46-.61,1.47-1.65s-.42-2.07,1.11-2.33a2.61,2.61,0,0,1,2.8,1.37C958,469.74,959.39,470.65,961.46,469.65Zm-55.93,17.56c-.54-.27-1-.47-1.41-.72-.68-.41-1.16-.09-1.59.41-.74.84-1.47,1.68-2.19,2.53s-1.28,1.08-2.19.32-.6-1.48,0-2.2c.87-1.06,1.72-2.12,2.63-3.14s.55-1.93-.54-2.3c-1.41-.48-1.91,1-2.47,1.78-1.45,2-4,3.31-4.21,6.16,0,.32.65.7,1,1,.93.81,1.87,1.63,2.82,2.42,6.68,5.62,6.68,5.61,11.79-1.5l.24-.29c.64-.7,1.06-1.37.08-2.15s-1.56-.25-2.16.48c-.79,1-1.61,1.89-2.39,2.86s-1.55,1.51-2.73.42-.25-1.73.34-2.47C903.41,489.79,904.27,488.75,905.53,487.21Zm20.88-24.27c-2.64,1.38-5.81,2.26-7.73,4.32-1.27,1.36,1.22,3.64,2,5.52s1.78,3.56,2.61,5.37c.6,1.32,1.33,1.5,2.6.8,2.06-1.15,4.22-2.11,6.31-3.19.73-.38,1.69-.72,1.06-1.93-.54-1-1.22-1-2.14-.52-1.19.66-2.46,1.19-3.65,1.85s-1.69.6-2.35-.64.16-1.66,1-2.25c1.28-.91,4.3-1.09,3.41-2.95-1.24-2.58-3,.48-4.6.73-.84.14-1.52.8-2.17-.35s-.3-1.81.82-2.32,2.43-1.25,3.65-1.85c.78-.38,1.22-.87.71-1.74C927.62,463.24,927.22,462.77,926.41,462.94ZM985.92,620.2c1.38-.18,2.51-.27,3-1.84,1.19-4,3.67-5,7.76-3.24a2.38,2.38,0,0,0,2.73-.52c1.1-1-.32-1.46-.8-1.92-2.7-2.58-5.48-5.06-8.2-7.61a2.36,2.36,0,0,0-3-.63,2.45,2.45,0,0,0-1.51,2.65C985.94,611.44,985.92,615.79,985.92,620.2Zm-45-158.85c1.27.22,2.57.74,3.2-.94.37-1-.33-1.31-1-1.62-3.2-1.44-8.25.7-9.81,4.13a7.2,7.2,0,0,0,3.85,9.63c3.17,1.12,6.06.32,8.74-1.7,1.83-1.39.77-2.89.44-4.38-.25-1.09-.4-2.32-2.06-2-1.49.32-1.17,1.39-1,2.34.67,2.84-1.16,3.22-3.18,3.18-2.75,0-4.13-1.88-4.14-4.35C935.94,462.58,938.1,461.45,940.87,461.35ZM910.74,606.44a2.06,2.06,0,0,0,1.43,3.17c2,.41,1.31-1.71,1.62-2.62,1.05-3.17,1.76-6.44,2.66-9.67.32-1.15.39-2.07-.72-2.94a2.4,2.4,0,0,0-3-.16c-3.05,1.62-6.2,3.07-9.23,4.74-.77.42-2.61.45-1.8,2.08.61,1.24,1.78,1.21,3.17.72C907.09,601,910.88,604.09,910.74,606.44Zm52.35,17.93c2-.07,1.22-1.39.86-2.31-1.32-3.36-2.75-6.67-4.09-10-.44-1.1-.87-1.95-2.3-2s-2.16.81-2.72,2c-1.54,3.25-3.19,6.46-4.69,9.74-.28.63-1.37,1.58-.1,2.18a2.32,2.32,0,0,0,2.72-.56c3.14-3.11,5.73-3.09,8.37.15A2.37,2.37,0,0,0,963.09,624.37ZM1024,488.72c-.16-3.79-3.22-5.7-5.37-8.18-.49-.57-1.14-.21-1.63.23l-8.3,7.52a1.18,1.18,0,0,0,0,1.92c.52.51,1.18,1.36,1.82.63,2.34-2.65,3.5-.31,4.93,1a4.93,4.93,0,0,0,5.84,1A4.42,4.42,0,0,0,1024,488.72ZM944.26,609.26c-.08-.12-.21-.57-.46-.65-3.3-1.08-6.61-2.14-9.94-3.12-.94-.28-1.3.55-1.51,1.27s.4,1.15,1,1.25c3.2.56,2.71,2.46,1.81,4.65a25.59,25.59,0,0,0-1.34,4.28c-.25,1.18-1.45,2.7.62,3.45s2.08-1.13,2.51-2.29a53.27,53.27,0,0,0,1.71-5.33c.45-1.79,1-3.09,3.21-2C943,611.27,944.12,611.17,944.26,609.26Zm91-101.11c.92-.27,1.72-.7,1.17-1.82-1.41-2.91-2.9-5.78-4.37-8.65a1.2,1.2,0,0,0-1.84-.56c-1.08.55-1,1.31-.38,2.11,1.46,2,.55,3-1.42,3.83s-4,2-6,3.05c-1.19.61-1.1,1.45-.57,2.46s1.21,1,2.12.46c1.84-1,3.77-1.87,5.59-2.93s3.38-1.65,4.27,1A1.26,1.26,0,0,0,1035.22,508.15Zm-145.68-7.31c.48.25.93.45,1.36.7l6.09,3.58c1,.59,1.88,1.21,2.73-.31s-.1-2-1.11-2.59c-1.6-1-3.16-2-4.82-2.81-2-1-3.48-2-1.52-4.35.68-.82.36-1.6-.64-2.09s-1.35.22-1.72.85q-2.28,3.84-4.52,7.72c-.39.68-.65,1.39.16,1.95s1.54.3,2.16-.54S888.37,501,889.54,500.84Zm99.64-24.13c1.16.21,1.46-.7,1.81-1.46.84-1.81,1.71-3.6,2.43-5.46s1.63-3.35,4-1.75c.82.56,1.58.49,2-.67.38-1-.19-1.4-.86-1.72-2.81-1.33-5.63-2.61-8.46-3.89-.85-.39-1.41,0-1.79.79s-.2,1.31.5,1.51c4,1.16,2,3.47,1.11,5.58-.71,1.59-1.36,3.21-2.16,4.76S988.18,476.26,989.18,476.71Zm-20,147.2c2.22-.36,4.2-.59,6.13-1,1-.22,2.89.54,2.49-1.7s-1.9-1.1-2.93-.84c-3.3.85-4.87-.2-4.82-3.75a42.14,42.14,0,0,0-.72-5.18c-.15-1.27-.79-1.66-2-1.53s-1.58.78-1.36,2c.58,3.31,1,6.65,1.55,10C967.71,622.88,967.65,624.36,969.21,623.91Zm-20.54-13c.19-.73,0-1.58-1.54-1.9s-1.57.67-1.75,1.67c-.64,3.42-1.28,6.85-2,10.27-.24,1.21.1,1.85,1.41,2s1.83-.41,2-1.57C947.44,618,948,614.73,948.67,610.87Zm-59.49-43.18a2.36,2.36,0,0,0-2.48,2.21,2.32,2.32,0,0,0,2.38,2.66,2.25,2.25,0,0,0,2.49-2.17C891.76,568.75,890.67,568,889.18,567.69Zm145.12-.87a2.36,2.36,0,0,0-2.15-2.51,2.34,2.34,0,0,0-2.81,2.22,2.12,2.12,0,0,0,2.11,2.48A2.38,2.38,0,0,0,1034.3,566.82Z" transform="translate(-866.24 -445.99)"/><path class="cls-3" d="M959.69,603.39a63.38,63.38,0,0,1,.11-126.76c34.79,0,63.07,28.48,63.1,63.46A63.27,63.27,0,0,1,959.69,603.39Zm60-63.25a60.13,60.13,0,1,0-120.25-.21c-.25,33,26.85,60.34,59.91,60.42A60,60,0,0,0,1019.7,540.14Z" transform="translate(-866.24 -445.99)"/><path class="cls-4" d="M885.4,550.15l-7.46-3.23c-1.08-.47-2-1-1.83-2.46s1.44-1.09,2.3-1.23c3.07-.5,6.14-.92,9.22-1.36,1.18-.17,2.26-.17,2.43,1.46s-.95,1.45-1.92,1.59c-1.6.25-3.19.53-4.8.8.09.23.1.51.24.62,1.78,1.29,5,1.1,5.55,3.23.6,2.32-3.23,2.6-4,5.23,1.71-.12,3.25-.21,4.79-.33,1-.08,1.66.26,1.77,1.39s-.48,1.54-1.5,1.67c-3.45.45-6.89,1-10.33,1.41-.73.09-1.55.26-1.93-.64a2.06,2.06,0,0,1,.65-2.66C880.72,554,882.83,552.22,885.4,550.15Z" transform="translate(-866.24 -445.99)"/><path class="cls-3" d="M1034.1,550.13c2.49,2,4.52,3.62,6.57,5.22a2.24,2.24,0,0,1,1,2.58c-.44,1.43-1.52.9-2.46.78l-9.23-1.18c-1.08-.15-2.4-.06-2.17-1.79s1.45-1.32,2.57-1.28,2.42.5,3.72-.13c-.09-.34-.07-.78-.28-1-4.29-4-4.29-4,1.17-6.66.42-.21.79-.51,1.57-1-2.15-.33-3.86-.62-5.57-.85-1-.13-1.7-.37-1.49-1.59.18-1,.61-1.62,1.73-1.47q5.52.76,11,1.5a1.08,1.08,0,0,1,1.09,1.21,2,2,0,0,1-1.23,2.06C1039.64,547.6,1037.18,548.74,1034.1,550.13Z" transform="translate(-866.24 -445.99)"/><path class="cls-3" d="M897.71,588.21c3-.33,5.46-.51,7.89-.91,1.39-.23,2.56-.15,3.11,1.25s-1,1.83-1.74,2.46c-2.29,1.91-4.69,3.7-7,5.54-.92.71-1.8,1.39-2.78,0-.86-1.22,0-1.77.77-2.4,1.26-1,2.5-2,4.57-3.66-2.18.19-3.44.24-4.67.41-3.94.56-4.19.23-2.77-3.63a8.13,8.13,0,0,0,.69-3.58c-1.3,1-2.61,1.91-3.89,2.91-.84.66-1.52,1.18-2.44,0s-.47-1.73.46-2.44c2.68-2,5.3-4.12,8-6.15.63-.47,1.25-1.4,2.24-.58a2.19,2.19,0,0,1,.67,2.68Z" transform="translate(-866.24 -445.99)"/><path class="cls-5" d="M914.83,478c-.36-1.77-1.74-2.61-2.47-3.87-.57-1-2.05-1.77-.45-3.1s2.17,0,2.92,1c1.78,2.24,3.59,4.47,5.27,6.79.56.78,2,1.45,1,2.79-.9,1.12-2.08,1-3.4.71-2.35-.49-4.65-1.53-7.24-1.19.28,1.93,1.76,2.87,2.64,4.16.68,1,1.32,1.71,0,2.75s-2,.06-2.65-.81c-1.77-2.26-3.57-4.49-5.27-6.79-.62-.84-2-1.6-1.24-2.84.83-1.45,2.35-1.1,3.71-.85C910,477.18,912.24,478.21,914.83,478Z" transform="translate(-866.24 -445.99)"/><path class="cls-5" d="M885.3,517.29c2.44.88,4,1.52,5.69,2,1.27.4,2,1,1.41,2.43s-1.49,1-2.44.65c-3.05-1-6.1-2.07-9.12-3.15-.76-.27-1.84-.37-1.72-1.58a2.4,2.4,0,0,1,1.75-2.17c2.75-1,5.47-2.07,8.7-3.29-2.13-.77-3.78-1.31-5.37-2-1-.42-2.59-.47-1.75-2.45.69-1.6,1.59-1.08,2.67-.68,2.79,1,5.62,1.94,8.41,3,.86.32,2.18.29,2.2,1.6s-1,2.09-2.29,2.54C891,515.05,888.62,516,885.3,517.29Z" transform="translate(-866.24 -445.99)"/><path class="cls-4" d="M926.37,617.3c-2.32-.15-3.19-1.51-3.19-3.65,0-1.34-.28-2.45-1.77-2.92s-1.66.72-2.12,1.51c-.69,1.18-1.48,1-2.49.45-1.44-.73-.7-1.59-.27-2.43,1.54-3,3.18-5.92,4.64-9,.71-1.46,1.48-1.77,2.85-.91,1.78,1.13,3.8,2,5.4,3.27a4.82,4.82,0,0,1-.14,7.76C926.26,613.78,926.26,613.78,926.37,617.3Zm-1.93-13.43a3.3,3.3,0,0,0-2.28,3.38c.12,1.62,2,2,3.46,2.09a2,2,0,0,0,2.26-2.37C927.73,605.05,926,604.54,924.44,603.87Z" transform="translate(-866.24 -445.99)"/><path class="cls-6" d="M1006,595.79c1.5,2,3.41,3.67,2.83,6.82-.37,2,2.57,1.37,3.68,2.72-1,2.08-2.56,2-4.46,1.18a3,3,0,0,0-3.49.21c-1.41,1.23.05,2,.5,2.81.58,1.08,0,1.55-.73,2.13-.9.7-1.52.53-2.13-.37-2-3-4.1-6-6.2-8.9a1.51,1.51,0,0,1,.39-2.49c2.94-2.06,5.69-4.52,9.68-4Zm-.42,5.53c-.24-1.33-.9-2.52-2.35-2.28s-3.46.84-3.35,2.65c.07,1.14,1,3.21,2.67,2.93A3.59,3.59,0,0,0,1005.57,601.32Z" transform="translate(-866.24 -445.99)"/><path class="cls-4" d="M883.7,539.32a7.36,7.36,0,0,1-7.28-7.48c0-4.38,3.21-7.94,7.27-7.94a7.36,7.36,0,0,1,7.27,7.46A7.62,7.62,0,0,1,883.7,539.32Zm0-3.41c2.56-.17,4.19-1.46,4.29-4.11.11-2.89-1.57-4.32-4.33-4.4a3.89,3.89,0,0,0-4.36,4C879.21,534.22,881,535.67,883.72,535.91Z" transform="translate(-866.24 -445.99)"/><path class="cls-6" d="M1005.1,485.05a7.93,7.93,0,0,1-8.12-7.53,7.21,7.21,0,0,1,6.92-7.34,8.15,8.15,0,0,1,8.11,7.63A7,7,0,0,1,1005.1,485.05Zm-.65-3a4.35,4.35,0,0,0,4.41-4.47,4,4,0,0,0-4.18-4.31c-2.74-.1-4.43,1.77-4.53,4.44S1001.78,481.73,1004.45,482.08Z" transform="translate(-866.24 -445.99)"/><path class="cls-6" d="M979.07,464a7.2,7.2,0,0,1-7.29,7.37c-4.37.07-8-3.12-8-7.15a7.06,7.06,0,0,1,7.32-7.29C975.6,456.88,979,459.9,979.07,464Zm-3.31,0c-.26-2.74-1.83-4.31-4.35-4.29-2.76,0-4.3,1.81-4.24,4.6s1.62,4.11,4.26,4.14C974.43,468.48,975.48,466.53,975.76,464Z" transform="translate(-866.24 -445.99)"/><path class="cls-5" d="M961.46,469.65c-2.07,1-3.45.09-4.57-1.63a2.61,2.61,0,0,0-2.8-1.37c-1.53.26-1.1,1.42-1.11,2.33s-.34,1.58-1.47,1.65c-1.31.09-1.77-.52-1.84-1.7-.18-3.47-.38-6.95-.56-10.42a1.75,1.75,0,0,1,.56-1.67c1.29-1,8.73-.51,10,.84,2.22,2.34,2.11,4.71.12,7.31C958.23,467.06,961.53,467.81,961.46,469.65Zm-6.94-5.72c2-.11,3.58-.66,3.47-2.72-.09-1.88-1.68-2.22-3.24-2.24-1.78,0-2.63.7-2.42,2.69C952.5,463.33,953,464.25,954.52,463.93Z" transform="translate(-866.24 -445.99)"/><path class="cls-7" d="M1028.47,526.11c-1-3.06-2-6.12-3-9.17-.51-1.49,0-2.35,1.49-2.74,1.32-.34,2.61-.76,3.91-1.16,7.88-2.45,7.87-2.45,9.84,5.82.23,1,.74,1.95-.62,2.46s-1.63-.62-1.93-1.55c-.38-1.18-.68-2.38-1.09-3.55-.24-.71-.57-1.46-1.56-1.14a1.62,1.62,0,0,0-1.21,2c.13,1.69,2.31,4.24.13,4.86-2.72.76-1.66-2.81-2.65-4.27-.59-.87-1-1.24-2-.8s-1.34.78-1,1.92c.74,2.3,2,4.59.79,7.13Z" transform="translate(-866.24 -445.99)"/><path class="cls-8" d="M905.53,487.21c-1.26,1.54-2.12,2.58-3,3.64-.59.74-1.52,1.38-.34,2.47s1.94.57,2.73-.42,1.6-1.9,2.39-2.86c.6-.73,1.21-1.24,2.16-.48s.56,1.45-.08,2.15l-.24.29c-5.11,7.11-5.11,7.12-11.79,1.5-.95-.79-1.89-1.61-2.82-2.42-.37-.33-1-.71-1-1,.18-2.85,2.76-4.13,4.21-6.16.56-.8,1.06-2.26,2.47-1.78,1.09.37,1.51,1.23.54,2.3s-1.76,2.08-2.63,3.14c-.6.72-.94,1.42,0,2.2s1.55.44,2.19-.32,1.45-1.69,2.19-2.53c.43-.5.91-.82,1.59-.41C904.54,486.74,905,486.94,905.53,487.21Z" transform="translate(-866.24 -445.99)"/><path class="cls-5" d="M926.41,462.94c.81-.17,1.21.3,1.54.85.51.87.07,1.36-.71,1.74-1.22.6-2.41,1.28-3.65,1.85s-1.49,1.14-.82,2.32,1.33.49,2.17.35c1.6-.25,3.36-3.31,4.6-.73.89,1.86-2.13,2-3.41,2.95-.83.59-1.7.87-1,2.25s1.31,1.22,2.35.64,2.46-1.19,3.65-1.85c.92-.51,1.6-.51,2.14.52.63,1.21-.33,1.55-1.06,1.93-2.09,1.08-4.25,2-6.31,3.19-1.27.7-2,.52-2.6-.8-.83-1.81-1.84-3.54-2.61-5.37s-3.29-4.16-2-5.52C920.6,465.2,923.77,464.32,926.41,462.94Z" transform="translate(-866.24 -445.99)"/><path class="cls-6" d="M985.92,620.2c0-4.41,0-8.76,0-13.11a2.45,2.45,0,0,1,1.51-2.65,2.36,2.36,0,0,1,3,.63c2.72,2.55,5.5,5,8.2,7.61.48.46,1.9.88.8,1.92a2.38,2.38,0,0,1-2.73.52c-4.09-1.73-6.57-.71-7.76,3.24C988.43,619.93,987.3,620,985.92,620.2ZM989,608.12a11.37,11.37,0,0,0,.09,4.76c1.34-.28,2.52-.49,3.29-1.67A9.58,9.58,0,0,0,989,608.12Z" transform="translate(-866.24 -445.99)"/><path class="cls-7" d="M1015,586.1a9.25,9.25,0,0,1,3.79-8.06c.74-.59,1.52-1.4,2.43-.06.7,1,.31,1.57-.54,2.1a1.66,1.66,0,0,0-.3.22c-1.07,1.22-3.36,2.49-1.73,4.14,1.42,1.43,2.7-.86,3.89-1.74,1.89-1.38,3.75-2.72,5.94-.7,2,1.84,1.6,4,.45,6.12a10.51,10.51,0,0,1-4.09,4.22,1.16,1.16,0,0,1-1.83-.46c-.46-.74-.57-1.36.27-1.86a8.33,8.33,0,0,0,3-2.75c.46-.75,1-1.58.29-2.36s-1.58-.25-2.28.3c-.39.3-.76.64-1.15.94-3.84,3.05-4.58,3-8.18-.11Z" transform="translate(-866.24 -445.99)"/><path class="cls-8" d="M940.87,461.35c-2.77.1-4.93,1.23-4.92,4.33,0,2.47,1.39,4.31,4.14,4.35,2,0,3.85-.34,3.18-3.18-.22-1-.54-2,1-2.34,1.66-.36,1.81.87,2.06,2,.33,1.49,1.39,3-.44,4.38-2.68,2-5.57,2.82-8.74,1.7a7.2,7.2,0,0,1-3.85-9.63c1.56-3.43,6.61-5.57,9.81-4.13.68.31,1.38.63,1,1.62C943.44,462.09,942.14,461.57,940.87,461.35Z" transform="translate(-866.24 -445.99)"/><path class="cls-6" d="M910.74,606.44c.14-2.35-3.65-5.48-5.88-4.68-1.39.49-2.56.52-3.17-.72-.81-1.63,1-1.66,1.8-2.08,3-1.67,6.18-3.12,9.23-4.74a2.4,2.4,0,0,1,3,.16c1.11.87,1,1.79.72,2.94-.9,3.23-1.61,6.5-2.66,9.67-.31.91.36,3-1.62,2.62A2.06,2.06,0,0,1,910.74,606.44Zm2.28-8.92c-1.34.92-3.54.63-3.7,2.58-.05.51,1.66,1.81,2.16,1.62C913.26,601.07,912.66,599.09,913,597.52Z" transform="translate(-866.24 -445.99)"/><path class="cls-5" d="M1028.47,526.11l1.07-.23c3.76,1.19,7.52,2.39,11.29,3.55a2.5,2.5,0,0,1,2,2.26c.21,1.45-.53,2-1.54,2.59-3.12,1.77-6.21,3.6-9.36,5.32-.61.33-1.43,1.52-2.12.22a2.16,2.16,0,0,1,.25-2.71c3-3.34,2.73-5.47-.89-8.32C1028.25,528,1028.35,527.1,1028.47,526.11Zm10.14,5.87c-1.47-.23-2.73-2.37-4.17-.63a2.56,2.56,0,0,0,.21,2.41C1036.38,534.7,1037.34,533,1038.61,532Z" transform="translate(-866.24 -445.99)"/><path class="cls-5" d="M963.09,624.37a2.37,2.37,0,0,1-2-.82c-2.64-3.24-5.23-3.26-8.37-.15a2.32,2.32,0,0,1-2.72.56c-1.27-.6-.18-1.55.1-2.18,1.5-3.28,3.15-6.49,4.69-9.74.56-1.2,1.15-2.1,2.72-2s1.86.92,2.3,2c1.34,3.34,2.77,6.65,4.09,10C964.31,623,965.11,624.3,963.09,624.37ZM957,614.08c.13,1.71-2.66,2.6-1.06,4.49a2.52,2.52,0,0,0,2.4,0C959.6,616.82,958,615.57,957,614.08Z" transform="translate(-866.24 -445.99)"/><path class="cls-9" d="M1024,488.72a4.42,4.42,0,0,1-2.71,4.18,4.93,4.93,0,0,1-5.84-1c-1.43-1.33-2.59-3.67-4.93-1-.64.73-1.3-.12-1.82-.63a1.18,1.18,0,0,1,0-1.92l8.3-7.52c.49-.44,1.14-.8,1.63-.23C1020.8,483,1023.86,484.93,1024,488.72Zm-3-1.14c-.49-1.19-1.25-3-2.79-3.05-1.17,0-3,1.39-2.91,2.79a3.47,3.47,0,0,0,3.34,2.88C1020.06,490.28,1020.85,489.41,1021,487.58Z" transform="translate(-866.24 -445.99)"/><path class="cls-7" d="M1014.91,586c0,.25.16.61.05.73-3.7,3.85-.59,6,2,8.31.75.66,1.38,1.45,2.12,2.1.93.82,1,1.48.06,2.41a1.46,1.46,0,0,1-2.48-.1c-.66-.74-1.48-1.35-2.09-2.13-2.41-3.12-4.93-5.39-8.58-1.57l.07.06c-.82-1.34-1.06-2.47.39-3.72a56.69,56.69,0,0,0,5.42-5.43,2.2,2.2,0,0,1,3.11-.6Z" transform="translate(-866.24 -445.99)"/><path class="cls-4" d="M944.26,609.26c-.14,1.91-1.27,2-2.39,1.48-2.26-1.06-2.76.24-3.21,2A53.27,53.27,0,0,1,937,618.1c-.43,1.16-.36,3.08-2.51,2.29s-.87-2.27-.62-3.45a25.59,25.59,0,0,1,1.34-4.28c.9-2.19,1.39-4.09-1.81-4.65-.6-.1-1.24-.44-1-1.25s.57-1.55,1.51-1.27c3.33,1,6.64,2,9.94,3.12C944.05,608.69,944.18,609.14,944.26,609.26Z" transform="translate(-866.24 -445.99)"/><path class="cls-3" d="M1035.22,508.15a1.26,1.26,0,0,1-1.38-1c-.89-2.7-2.44-2.12-4.27-1S1025.82,508,1024,509c-.91.5-1.57.58-2.12-.46s-.62-1.85.57-2.46c2-1,3.91-2.18,6-3.05s2.88-1.81,1.42-3.83c-.58-.8-.7-1.56.38-2.11a1.2,1.2,0,0,1,1.84.56c1.47,2.87,3,5.74,4.37,8.65C1036.94,507.45,1036.14,507.88,1035.22,508.15Z" transform="translate(-866.24 -445.99)"/><path class="cls-4" d="M889.54,500.84c-1.17.2-1.29,1.37-1.83,2.11s-1.26,1.17-2.16.54-.55-1.27-.16-1.95q2.25-3.87,4.52-7.72c.37-.63.73-1.33,1.72-.85s1.32,1.27.64,2.09c-2,2.39-.45,3.36,1.52,4.35,1.66.84,3.22,1.86,4.82,2.81,1,.59,1.93,1.12,1.11,2.59s-1.74.9-2.73.31l-6.09-3.58C890.47,501.29,890,501.09,889.54,500.84Z" transform="translate(-866.24 -445.99)"/><path class="cls-8" d="M989.18,476.71c-1-.45-2.29-.64-1.43-2.31s1.45-3.17,2.16-4.76c.93-2.11,2.93-4.42-1.11-5.58-.7-.2-.83-.84-.5-1.51s.94-1.18,1.79-.79c2.83,1.28,5.65,2.56,8.46,3.89.67.32,1.24.72.86,1.72-.45,1.16-1.21,1.23-2,.67-2.33-1.6-3.19-.22-4,1.75s-1.59,3.65-2.43,5.46C990.64,476,990.34,476.92,989.18,476.71Z" transform="translate(-866.24 -445.99)"/><path class="cls-8" d="M969.21,623.91c-1.56.45-1.5-1-1.67-2-.57-3.32-1-6.66-1.55-10-.22-1.24,0-1.87,1.36-2s1.86.26,2,1.53a42.14,42.14,0,0,1,.72,5.18c-.05,3.55,1.52,4.6,4.82,3.75,1-.26,2.55-1.29,2.93.84s-1.49,1.48-2.49,1.7C973.41,623.32,971.43,623.55,969.21,623.91Z" transform="translate(-866.24 -445.99)"/><path class="cls-7" d="M948.67,610.87c-.66,3.86-1.23,7.17-1.8,10.48-.2,1.16-.74,1.73-2,1.57s-1.65-.8-1.41-2c.67-3.42,1.31-6.85,2-10.27.18-1,.19-2,1.75-1.67S948.86,610.14,948.67,610.87Z" transform="translate(-866.24 -445.99)"/><path class="cls-7" d="M889.19,567.69c1.48.29,2.57,1.06,2.38,2.7a2.25,2.25,0,0,1-2.49,2.17,2.32,2.32,0,0,1-2.38-2.66A2.36,2.36,0,0,1,889.19,567.69Z" transform="translate(-866.24 -445.99)"/><path class="cls-7" d="M1034.3,566.82a2.38,2.38,0,0,1-2.85,2.19,2.12,2.12,0,0,1-2.11-2.48,2.34,2.34,0,0,1,2.81-2.22A2.36,2.36,0,0,1,1034.3,566.82Z" transform="translate(-866.24 -445.99)"/><path class="cls-10" d="M1019.7,540.14a60,60,0,0,1-60.34,60.21c-33.06-.08-60.16-27.4-59.91-60.42a60.13,60.13,0,1,1,120.25.21Zm-117.06-.46c-.16,31.51,25.07,57.44,56.1,57.63,32.14.21,57.71-24.92,57.91-56.92.21-31.64-25.09-57.49-56.46-57.7A57.14,57.14,0,0,0,902.64,539.68Z" transform="translate(-866.24 -445.99)"/><path class="cls-10" d="M924.44,603.87c1.57.67,3.29,1.18,3.44,3.1a2,2,0,0,1-2.26,2.37c-1.49-.08-3.34-.47-3.46-2.09A3.3,3.3,0,0,1,924.44,603.87Z" transform="translate(-866.24 -445.99)"/><path class="cls-10" d="M1005.57,601.33a3.59,3.59,0,0,1-3,3.29c-1.7.28-2.6-1.79-2.67-2.93-.11-1.81,1.86-2.4,3.35-2.65S1005.33,600,1005.57,601.33Z" transform="translate(-866.24 -445.99)"/><path class="cls-11" d="M883.72,535.91c-2.77-.24-4.51-1.69-4.4-4.48a3.89,3.89,0,0,1,4.36-4c2.76.08,4.44,1.51,4.33,4.4C887.91,534.45,886.28,535.74,883.72,535.91Z" transform="translate(-866.24 -445.99)"/><path class="cls-12" d="M1004.45,482.08c-2.67-.35-4.4-1.73-4.3-4.34s1.79-4.54,4.53-4.44a4,4,0,0,1,4.18,4.31A4.35,4.35,0,0,1,1004.45,482.08Z" transform="translate(-866.24 -445.99)"/><path class="cls-12" d="M975.76,464c-.28,2.54-1.33,4.49-4.33,4.45-2.64,0-4.2-1.48-4.26-4.14s1.48-4.59,4.24-4.6C973.93,459.68,975.5,461.25,975.76,464Z" transform="translate(-866.24 -445.99)"/><path class="cls-13" d="M954.52,463.93c-1.55.32-2-.6-2.19-2.27-.21-2,.64-2.71,2.42-2.69,1.56,0,3.15.36,3.24,2.24C958.1,463.27,956.54,463.82,954.52,463.93Z" transform="translate(-866.24 -445.99)"/><path class="cls-10" d="M989,608.12a9.58,9.58,0,0,1,3.38,3.09c-.77,1.18-2,1.39-3.29,1.67A11.37,11.37,0,0,1,989,608.12Z" transform="translate(-866.24 -445.99)"/><path class="cls-13" d="M913,597.52c-.36,1.57.24,3.55-1.54,4.2-.5.19-2.21-1.11-2.16-1.62C909.48,598.15,911.68,598.44,913,597.52Z" transform="translate(-866.24 -445.99)"/><path class="cls-13" d="M1038.61,532c-1.27,1-2.23,2.72-4,1.78a2.56,2.56,0,0,1-.21-2.41C1035.88,529.61,1037.14,531.75,1038.61,532Z" transform="translate(-866.24 -445.99)"/><path class="cls-13" d="M957,614.08c1,1.49,2.59,2.74,1.34,4.52a2.52,2.52,0,0,1-2.4,0C954.35,616.68,957.14,615.79,957,614.08Z" transform="translate(-866.24 -445.99)"/><path class="cls-10" d="M1021,487.58c-.13,1.83-.92,2.7-2.36,2.62a3.47,3.47,0,0,1-3.34-2.88c-.13-1.4,1.74-2.83,2.91-2.79C1019.73,484.58,1020.49,486.39,1021,487.58Z" transform="translate(-866.24 -445.99)"/><path class="cls-14" d="M902.64,539.68a57.14,57.14,0,0,1,57.55-57c31.37.21,56.67,26.06,56.46,57.7-.2,32-25.77,57.13-57.91,56.92C927.71,597.12,902.48,571.19,902.64,539.68Zm62.61,15.69c0,4,.07,6.94,0,9.88a3.19,3.19,0,0,0,2.13,3.43c9.45,4.5,9.43,4.54,18.31-1.12,1.37-.87,2.69-1.82,4.12-2.57,1.65-.87,2.13-2.11,2.1-4-.11-6.37,0-12.74-.1-19.1,0-2.24.35-4,2.56-4.78,5.52-2.07,7.29-6.13,6.3-11.71a6.26,6.26,0,0,1,0-.75c-.09-3.86,1.19-8.68-.64-11.31-2-2.8-6.88-3.46-10.45-5.18a4.32,4.32,0,0,0-4.78.41c-7.6,5-15.34,9.74-22.94,14.71a3.29,3.29,0,0,1-4.28,0c-5.18-3.45-10.95-6.16-15.62-10.18-6.87-5.92-13.37-6-20.71-1.4-1.66,1-2.63,1.74-2.56,3.86.16,5,.13,10,0,15,0,1.85.43,3.21,2.18,3.84,6.06,2.2,7.64,6.72,6.68,12.65a15.27,15.27,0,0,0,0,2.62c.08,4.6-1.36,10.12.68,13.56,2.22,3.75,7.66,5.58,11.71,8.24a6,6,0,0,0,.64.38c1.83.94,12.65-2.95,13.24-4.84a9.4,9.4,0,0,0,.14-2.61c0-2.69,0-5.39,0-9.56C957.81,559.63,961.29,559.34,965.25,555.37Z" transform="translate(-866.24 -445.99)"/><path class="cls-11" d="M965.25,555.37c-4,4-7.44,4.26-11.33-.45,0,4.17,0,6.87,0,9.56a9.4,9.4,0,0,1-.14,2.61c-.59,1.89-11.41,5.78-13.24,4.84a6,6,0,0,1-.64-.38c-4-2.66-9.49-4.49-11.71-8.24-2-3.44-.6-9-.68-13.56a15.27,15.27,0,0,1,0-2.62c1-5.93-.62-10.45-6.68-12.65-1.75-.63-2.23-2-2.18-3.84.12-5,.15-10,0-15-.07-2.12.9-2.83,2.56-3.86,7.34-4.58,13.84-4.52,20.71,1.4,4.67,4,10.44,6.73,15.62,10.18a3.29,3.29,0,0,0,4.28,0c7.6-5,15.34-9.73,22.94-14.71a4.32,4.32,0,0,1,4.78-.41c3.57,1.72,8.5,2.38,10.45,5.18,1.83,2.63.55,7.45.64,11.31a6.26,6.26,0,0,0,0,.75c1,5.58-.78,9.64-6.3,11.71-2.21.83-2.61,2.54-2.56,4.78.14,6.36,0,12.73.1,19.1,0,1.84-.45,3.08-2.1,4-1.43.75-2.75,1.7-4.12,2.57-8.88,5.66-8.86,5.62-18.31,1.12a3.19,3.19,0,0,1-2.13-3.43C965.32,562.31,965.25,559.37,965.25,555.37ZM979.11,567c2.38-.66,3.71-2.37,5.47-3,3.23-1.22,3.64-3.47,3.54-6.49-.19-6,0-12-.08-18,0-1.74.19-3.22,2.07-3.93,5.82-2.2,8.1-6.37,6.93-12.5a16.59,16.59,0,0,1,0-1.87c-.08-1,.46-2.23-.47-2.8-1.12-.68-2,.44-2.94,1l-24.17,15.36c-8.56,5.45-8.55,5.45-8.24,15.32,0,.12,0,.25,0,.37-.07,2.67.8,3.1,3,1.57,3.79-2.58,7.73-4.94,11.59-7.42,2.46-1.59,3.39-1.09,3.32,2C979,553.27,979.11,560,979.11,567Zm-38.82,0c0-6.92,0-13.51,0-20.11,0-1-.61-2.49.64-3,1.1-.48,2,.64,2.93,1.22,3.78,2.37,7.64,4.63,11.36,7.08,2,1.28,2.79,1.24,3-1.36.78-10.16.67-10.43-8.16-15.62-1.17-.69-2.27-1.52-3.42-2.25l-22-13.93c-1-.61-1.83-1.6-2.29.52-1.66,7.68.08,12.13,6.72,15.95a4.09,4.09,0,0,1,2.26,4.22c-.08,4.61.5,9.31-.15,13.83-.94,6.58,1.51,10.65,7.42,13C939,566.6,939.32,566.67,940.29,567Zm-15.17-52.07L956,534.56c.77.49,1.47,1,1.91-.47a7.26,7.26,0,0,0-3.13-8.22c-5.76-3.68-11.75-7.06-17.23-11.13C933.36,511.62,929.64,511.15,925.12,514.88Zm69.07-.06c-4.25-3.33-7.88-3.49-12.16-.27a166.64,166.64,0,0,1-16.91,10.82c-3,1.71-4.1,3.73-3.87,7.12.18,2.56.56,3.11,2.86,1.61,7.06-4.61,14.2-9.1,21.31-13.64Zm-50.1,53.25c2.6-1.74,6.48-.86,6.47-5.6,0-9.73-.24-10.47-6.47-12.53Zm31.14-18.31c-6.81,3-7.37,4.18-6.41,13.69.4,3.94,4.15,2.95,6.41,4.5Z" transform="translate(-866.24 -445.99)"/><path class="cls-15" d="M979.11,567c0-7-.11-13.72,0-20.4.07-3.06-.86-3.56-3.32-2-3.86,2.48-7.8,4.84-11.59,7.42-2.25,1.53-3.12,1.1-3-1.57,0-.12,0-.25,0-.37-.31-9.87-.32-9.87,8.24-15.32l24.17-15.36c.91-.58,1.82-1.7,2.94-1,.93.57.39,1.84.47,2.8a16.59,16.59,0,0,0,0,1.87c1.17,6.13-1.11,10.3-6.93,12.5-1.88.71-2.08,2.19-2.07,3.93.06,6-.11,12,.08,18,.1,3-.31,5.27-3.54,6.49C982.82,564.62,981.49,566.33,979.11,567Z" transform="translate(-866.24 -445.99)"/><path class="cls-15" d="M940.29,567c-1-.28-1.33-.35-1.67-.48-5.91-2.36-8.36-6.43-7.42-13,.65-4.52.07-9.22.15-13.83a4.09,4.09,0,0,0-2.26-4.22c-6.64-3.82-8.38-8.27-6.72-15.95.46-2.12,1.33-1.13,2.29-.52l22,13.93c1.15.73,2.25,1.56,3.42,2.25,8.83,5.19,8.94,5.46,8.16,15.62-.2,2.6-1,2.64-3,1.36-3.72-2.45-7.58-4.71-11.36-7.08-.93-.58-1.83-1.7-2.93-1.22-1.25.55-.63,2-.64,3C940.26,553.44,940.29,560,940.29,567Z" transform="translate(-866.24 -445.99)"/><path class="cls-9" d="M925.12,514.88c4.52-3.73,8.24-3.26,12.45-.14,5.48,4.07,11.47,7.45,17.23,11.13a7.26,7.26,0,0,1,3.13,8.22c-.44,1.44-1.14,1-1.91.47Z" transform="translate(-866.24 -445.99)"/><path class="cls-9" d="M994.19,514.82l-8.77,5.64c-7.11,4.54-14.25,9-21.31,13.64-2.3,1.5-2.68.95-2.86-1.61-.23-3.39.9-5.41,3.87-7.12A166.64,166.64,0,0,0,982,514.55C986.31,511.33,989.94,511.49,994.19,514.82Z" transform="translate(-866.24 -445.99)"/><path class="cls-5" d="M944.09,568.07V549.94c6.23,2.06,6.45,2.8,6.47,12.53C950.57,567.21,946.69,566.33,944.09,568.07Z" transform="translate(-866.24 -445.99)"/><path class="cls-9" d="M975.23,549.76V568c-2.26-1.55-6-.56-6.41-4.5C967.86,553.94,968.42,552.8,975.23,549.76Z" transform="translate(-866.24 -445.99)"/></svg>